<?xml version="1.0" encoding="utf-8"?>
<!-- Generator: Adobe Illustrator 23.0.2, SVG Export Plug-In . SVG Version: 6.00 Build 0)  -->
<svg version="1.1" xmlns="http://www.w3.org/2000/svg" xmlns:xlink="http://www.w3.org/1999/xlink" x="0px" y="0px"
	 viewBox="0 0 167.7 55.2" style="enable-background:new 0 0 167.7 55.2;" xml:space="preserve">
<style type="text/css">
	.st0{fill:#EF5023;}
	.st1{clip-path:url(#SVGID_2_);fill:url(#SVGID_3_);}
	.st2{fill:#F58B22;}
	.st3{clip-path:url(#SVGID_5_);fill:url(#SVGID_6_);}
	.st4{fill:#E65025;}
	.st5{fill:#BE1E2D;}
	.st6{clip-path:url(#SVGID_8_);fill:url(#SVGID_9_);}
	.st7{clip-path:url(#SVGID_11_);fill:url(#SVGID_12_);}
	.st8{clip-path:url(#SVGID_14_);fill:url(#SVGID_15_);}
	.st9{clip-path:url(#SVGID_17_);fill:url(#SVGID_18_);}
</style>
<g id="Isolation_Mode">
	<g>
		<polygon class="st0" points="127.6,2.1 120.2,21.7 119.7,23.2 119.1,21.7 111.7,1.9 101.4,1.9 114,35.4 125.3,35.4 137.9,2.1 		
			"/>
		<g>
			<defs>
				<path id="SVGID_1_" d="M132.2,6c-3.5,3.5-5.3,7.8-5.3,12.7c0,4.9,1.8,9.2,5.3,12.7c3.5,3.5,7.5,5.2,12.3,5.3
					c0-0.4-0.1-0.9-0.1-1.3c0-3.9,1.9-7.4,4.8-9.5c-1.3,0.8-2.7,1.2-4.4,1.2c-2.3,0-4.3-0.8-5.9-2.4c-1.6-1.7-2.4-3.7-2.4-6
					c0-2.3,0.8-4.3,2.4-5.9c1.7-1.7,3.6-2.5,5.9-2.5c2.3,0,4.2,0.8,5.9,2.5c1.7,1.6,2.5,3.6,2.5,5.9c0,2.3-0.9,4.3-2.5,6
					c-0.3,0.3-0.6,0.5-0.8,0.7c1.8-1.2,4-1.9,6.4-1.9c2,0,3.9,0.5,5.5,1.4c0.7-1.9,1.1-4,1.1-6.2c0-5-1.8-9.2-5.3-12.7
					c-3.6-3.6-7.7-5.3-12.7-5.3S135.8,2.4,132.2,6"/>
			</defs>
			<clipPath id="SVGID_2_">
				<use xlink:href="#SVGID_1_"  style="overflow:visible;"/>
			</clipPath>
			
				<linearGradient id="SVGID_3_" gradientUnits="userSpaceOnUse" x1="-162.4668" y1="682.1671" x2="-162.2225" y2="682.1671" gradientTransform="matrix(-126.8146 -73.2164 -73.2164 126.8146 29502.9297 -98376.4063)">
				<stop  offset="0" style="stop-color:#F58B22"/>
				<stop  offset="0.6851" style="stop-color:#F27226"/>
				<stop  offset="1" style="stop-color:#EF5023"/>
			</linearGradient>
			<polygon class="st1" points="153.9,52.3 111.3,27.7 135.9,-14.9 178.5,9.7 			"/>
		</g>
		<path class="st2" d="M19.9,22.4h5.4h1.1l-0.6,0.9c-0.3,0.4-0.6,0.9-1.1,1.3c-1.6,1.6-3.6,2.4-5.9,2.4c-2.3,0-4.3-0.8-5.9-2.4
			c-1.6-1.7-2.4-3.7-2.4-6c0-2.3,0.8-4.3,2.4-5.9c1.6-1.6,3.6-2.5,5.9-2.5c2.3,0,3.7,0.5,5.1,1.7L31,5.6c-3.5-3.3-7.5-4.9-12.3-4.9
			C13.8,0.7,9.6,2.5,6,6c-3.5,3.4-5.3,7.7-5.3,12.7c0,4.9,1.8,9.2,5.3,12.7c3.5,3.5,7.8,5.3,12.7,5.3c5,0,9.1-1.7,12.7-5.3
			c3.3-3.3,5-7.5,5-12.7v-0.5v-1.5H19.9V22.4z"/>
		<g>
			<defs>
				<path id="SVGID_4_" d="M40.3,22.4l2.4-7l0.6-1.6l0.5,1.6l2.4,7l0.3,0.8h-0.8h-4.9H40L40.3,22.4z M37.2,1.9L25.6,35.4l10.1,0
					l1.5-4.2l0.1-0.4h0.4h11h0.4l0.1,0.4l1.5,4.1h10.1L49.3,1.9H37.2z"/>
			</defs>
			<clipPath id="SVGID_5_">
				<use xlink:href="#SVGID_4_"  style="overflow:visible;"/>
			</clipPath>
			
				<linearGradient id="SVGID_6_" gradientUnits="userSpaceOnUse" x1="-166.1586" y1="685.6496" x2="-165.9142" y2="685.6496" gradientTransform="matrix(144.3504 0 0 -144.3504 24010.666 98992.4375)">
				<stop  offset="0" style="stop-color:#F58B22"/>
				<stop  offset="0.6851" style="stop-color:#F27226"/>
				<stop  offset="1" style="stop-color:#EF5023"/>
			</linearGradient>
			<rect x="25.6" y="1.9" class="st3" width="35.3" height="33.5"/>
		</g>
		<path class="st4" d="M25.7,35.4c2.1-0.9,4-2.2,5.8-3.9c3.3-3.3,5-7.5,5-12.7v-0.5v-1.5h-4.4L25.7,35.4L25.7,35.4z"/>
		<polygon class="st4" points="73.6,11.4 73.2,12 72.7,11.4 65.5,1.9 65.2,1.9 65.2,1.9 55.6,1.9 55.6,35.3 65.2,35.3 65.2,19 
			65.2,17.3 66.2,18.7 73.2,27.9 80.1,18.8 81.1,17.4 81.1,19.2 81.1,35.3 90.7,35.3 90.7,1.9 80.9,1.9 		"/>
		<polygon class="st5" points="55.6,35.3 60.9,35.3 55.6,20.1 		"/>
		<rect x="95.1" y="1.9" class="st2" width="9.6" height="8.8"/>
		<g>
			<defs>
				<rect id="SVGID_7_" x="95.1" y="15.1" width="9.6" height="20.2"/>
			</defs>
			<clipPath id="SVGID_8_">
				<use xlink:href="#SVGID_7_"  style="overflow:visible;"/>
			</clipPath>
			
				<linearGradient id="SVGID_9_" gradientUnits="userSpaceOnUse" x1="-170.5175" y1="680.4525" x2="-170.2731" y2="680.4525" gradientTransform="matrix(0 82.7555 82.7555 0 -56211.2617 14126.3857)">
				<stop  offset="0" style="stop-color:#F58B22"/>
				<stop  offset="0.6851" style="stop-color:#F27226"/>
				<stop  offset="1" style="stop-color:#E45025"/>
			</linearGradient>
			<rect x="95.1" y="15.1" class="st6" width="9.6" height="20.2"/>
		</g>
		<path class="st5" d="M132.2,6c-3.5,3.5-5.3,7.8-5.3,12.7c0,2.8,0.6,5.4,1.8,7.8l9.2-24.5C135.8,3,133.9,4.3,132.2,6"/>
		<polygon class="st5" points="104.7,10.7 104.7,1.9 101.4,1.9 		"/>
		<path class="st2" d="M148.5,35c-0.5,0-0.8-0.4-0.8-0.8c0-0.4,0.4-0.8,0.8-0.8c0.5,0,0.8,0.4,0.8,0.8C149.3,34.6,148.9,35,148.5,35
			"/>
		<g>
			<defs>
				<path id="SVGID_10_" d="M156.9,32.8c-0.3-0.3-0.4-0.6-0.4-1c0-0.4,0.1-0.7,0.4-1c0.3-0.3,0.6-0.4,1-0.4c0.4,0,0.7,0.1,1,0.4
					c0.3,0.3,0.4,0.6,0.4,1c0,0.4-0.1,0.7-0.4,1c-0.3,0.3-0.6,0.4-1,0.4C157.5,33.2,157.2,33.1,156.9,32.8 M155.5,29.4
					c-0.7,0.7-1,1.5-1,2.4c0,0.9,0.3,1.7,1,2.4c0.7,0.7,1.5,1,2.4,1c0.9,0,1.7-0.3,2.4-1c0.7-0.7,1-1.5,1-2.4c0-0.9-0.3-1.8-1-2.4
					c-0.7-0.7-1.5-1-2.4-1C156.9,28.4,156.2,28.7,155.5,29.4"/>
			</defs>
			<clipPath id="SVGID_11_">
				<use xlink:href="#SVGID_10_"  style="overflow:visible;"/>
			</clipPath>
			
				<linearGradient id="SVGID_12_" gradientUnits="userSpaceOnUse" x1="-180.0911" y1="697.6242" x2="-179.8467" y2="697.6242" gradientTransform="matrix(28.0594 0 0 -28.0594 5207.7212 19606.7246)">
				<stop  offset="0" style="stop-color:#F58B22"/>
				<stop  offset="0.6851" style="stop-color:#F27226"/>
				<stop  offset="1" style="stop-color:#E45025"/>
			</linearGradient>
			<rect x="154.5" y="28.4" class="st7" width="6.9" height="6.9"/>
		</g>
		<path class="st2" d="M154,32.9c-0.3,0.3-0.7,0.3-1.1,0.3c-0.4,0-0.8-0.1-1.1-0.4c-0.3-0.3-0.4-0.6-0.4-1c0-0.4,0.1-0.7,0.4-1
			c0.3-0.3,0.6-0.4,1-0.4s0.7,0.1,1,0.4c0,0,0,0,0,0l0.1-0.1c0.2-0.6,0.5-1.2,0.9-1.7c-0.4-0.3-1.2-0.7-2-0.7c-0.9,0-1.7,0.3-2.4,1
			c-0.7,0.7-1,1.5-1,2.4c0,0.9,0.3,1.7,1,2.4c0.7,0.7,1.5,1,2.4,1c0.9,0,1.4-0.1,2.1-0.6C154.4,34.1,154.1,33.5,154,32.9"/>
		<path class="st4" d="M165,28.6L165,28.6l-1.4,1.8l-1.4-1.8h0v0h-2c0.1,0.1,0.3,0.2,0.4,0.4c0.8,0.8,1.2,1.7,1.2,2.9
			c0,1.1-0.4,2.1-1.2,2.9c-0.1,0.1-0.2,0.2-0.4,0.3h1.9v-3.1l1.4,1.8l1.4-1.8V35h2v-6.4H165z"/>
		<path class="st2" d="M19.9,22.4h5.4h1.1l-0.6,0.9c-0.3,0.4-0.6,0.9-1.1,1.3c-1.6,1.6-3.6,2.4-5.9,2.4c-2.3,0-4.3-0.8-5.9-2.4
			c-1.6-1.7-2.4-3.7-2.4-6c0-2.3,0.8-4.3,2.4-5.9c1.6-1.6,3.6-2.5,5.9-2.5c2.3,0,3.7,0.5,5.1,1.7L31,5.6c-3.5-3.3-7.5-4.9-12.3-4.9
			C13.8,0.7,9.6,2.5,6,6c-3.5,3.4-5.3,7.7-5.3,12.7c0,4.9,1.8,9.2,5.3,12.7c3.5,3.5,7.8,5.3,12.7,5.3c5,0,9.1-1.7,12.7-5.3
			c3.3-3.3,5-7.5,5-12.7v-0.5v-1.5H19.9V22.4z"/>
		<polygon class="st0" points="73.6,11.4 73.2,12 72.7,11.4 65.5,1.9 65.2,1.9 65.2,1.9 55.6,1.9 55.6,35.3 65.2,35.3 65.2,19 
			65.2,17.3 66.2,18.7 73.2,27.9 80.1,18.8 81.1,17.4 81.1,19.2 81.1,35.3 90.7,35.3 90.7,1.9 80.9,1.9 		"/>
		<polygon class="st5" points="55.6,35.3 60.9,35.3 55.6,20.1 		"/>
		<rect x="95.1" y="1.9" class="st2" width="9.6" height="8.8"/>
		<g>
			<defs>
				<rect id="SVGID_13_" x="95.1" y="15.1" width="9.6" height="20.2"/>
			</defs>
			<clipPath id="SVGID_14_">
				<use xlink:href="#SVGID_13_"  style="overflow:visible;"/>
			</clipPath>
			
				<linearGradient id="SVGID_15_" gradientUnits="userSpaceOnUse" x1="-170.5175" y1="680.4525" x2="-170.2731" y2="680.4525" gradientTransform="matrix(0 82.7555 82.7555 0 -56211.2617 14126.3857)">
				<stop  offset="0" style="stop-color:#F58B22"/>
				<stop  offset="0.6851" style="stop-color:#F27226"/>
				<stop  offset="1" style="stop-color:#EF5023"/>
			</linearGradient>
			<rect x="95.1" y="15.1" class="st8" width="9.6" height="20.2"/>
		</g>
		<polygon class="st5" points="104.7,10.7 104.7,1.9 101.4,1.9 		"/>
		<path class="st2" d="M148.5,35c-0.5,0-0.8-0.4-0.8-0.8c0-0.4,0.4-0.8,0.8-0.8c0.5,0,0.8,0.4,0.8,0.8C149.3,34.6,148.9,35,148.5,35
			"/>
		<g>
			<defs>
				<path id="SVGID_16_" d="M156.9,32.8c-0.3-0.3-0.4-0.6-0.4-1c0-0.4,0.1-0.7,0.4-1c0.3-0.3,0.6-0.4,1-0.4c0.4,0,0.7,0.1,1,0.4
					c0.3,0.3,0.4,0.6,0.4,1c0,0.4-0.1,0.7-0.4,1c-0.3,0.3-0.6,0.4-1,0.4C157.5,33.2,157.2,33.1,156.9,32.8 M155.5,29.4
					c-0.7,0.7-1,1.5-1,2.4c0,0.9,0.3,1.7,1,2.4c0.7,0.7,1.5,1,2.4,1c0.9,0,1.7-0.3,2.4-1c0.7-0.7,1-1.5,1-2.4c0-0.9-0.3-1.8-1-2.4
					c-0.7-0.7-1.5-1-2.4-1C156.9,28.4,156.2,28.7,155.5,29.4"/>
			</defs>
			<clipPath id="SVGID_17_">
				<use xlink:href="#SVGID_16_"  style="overflow:visible;"/>
			</clipPath>
			
				<linearGradient id="SVGID_18_" gradientUnits="userSpaceOnUse" x1="-180.0911" y1="697.6242" x2="-179.8467" y2="697.6242" gradientTransform="matrix(28.0594 0 0 -28.0594 5207.7212 19606.7246)">
				<stop  offset="0" style="stop-color:#F58B22"/>
				<stop  offset="0.6851" style="stop-color:#F27226"/>
				<stop  offset="1" style="stop-color:#EF5023"/>
			</linearGradient>
			<rect x="154.5" y="28.4" class="st9" width="6.9" height="6.9"/>
		</g>
		<path class="st2" d="M154,32.9c-0.3,0.3-0.7,0.3-1.1,0.3c-0.4,0-0.8-0.1-1.1-0.4c-0.3-0.3-0.4-0.6-0.4-1c0-0.4,0.1-0.7,0.4-1
			c0.3-0.3,0.6-0.4,1-0.4s0.7,0.1,1,0.4c0,0,0,0,0,0l0.1-0.1c0.2-0.6,0.5-1.2,0.9-1.7c-0.4-0.3-1.2-0.7-2-0.7c-0.9,0-1.7,0.3-2.4,1
			c-0.7,0.7-1,1.5-1,2.4c0,0.9,0.3,1.7,1,2.4c0.7,0.7,1.5,1,2.4,1c0.9,0,1.4-0.1,2.1-0.6C154.4,34.1,154.1,33.5,154,32.9"/>
		<path class="st0" d="M165,28.6L165,28.6l-1.4,1.8l-1.4-1.8h0v0h-2c0.1,0.1,0.3,0.2,0.4,0.4c0.8,0.8,1.2,1.7,1.2,2.9
			c0,1.1-0.4,2.1-1.2,2.9c-0.1,0.1-0.2,0.2-0.4,0.3h1.9v-3.1l1.4,1.8l1.4-1.8V35h2v-6.4H165z"/>
		<path class="st4" d="M25.7,35.4c2.1-0.9,4-2.2,5.8-3.9c3.3-3.3,5-7.5,5-12.7v-0.5v-1.5h-4.4L25.7,35.4L25.7,35.4z"/>
	</g>
</g>
<g id="Layer_2">
	<g>
		<path class="st0" d="M126.5,49.9c0,1.2-0.5,2.3-1.3,3.1c-0.8,0.8-1.9,1.3-3.7,1.3H114v-14l6.4,0c1.9,0,2.7,0.4,3.5,1.3
			c0.8,0.8,1,1.8,1,3c0,1-0.3,1.6-0.6,1.9c0.2,0,0.5,0.1,0.8,0.4C126,47.7,126.5,48.7,126.5,49.9z M118.3,43.5v2h2
			c0.4,0,0.7-0.1,0.9-0.3c0.2-0.2,0.3-0.4,0.3-0.7c0-0.6-0.4-1-1-1H118.3z M122.6,49.9c0-0.6-0.5-1-1-1h-3.2V51h3
			c0.5,0,0.8-0.1,1-0.3C122.4,50.5,122.6,50.2,122.6,49.9z"/>
		<path class="st0" d="M136.3,54.3h-8.8v-14h4.3V50h4.5V54.3z"/>
		<path class="st0" d="M149.3,52.7c-1.5,1.5-3.2,2.2-5.3,2.2s-3.8-0.7-5.3-2.2c-1.5-1.5-2.2-3.2-2.2-5.3c0-2.1,0.7-3.9,2.2-5.3
			c1.5-1.5,3.2-2.2,5.3-2.2s3.8,0.7,5.3,2.2c1.5,1.5,2.2,3.2,2.2,5.3C151.6,49.4,150.8,51.2,149.3,52.7z M146.2,45.1
			c-0.6-0.6-1.4-0.9-2.2-0.9c-0.9,0-1.6,0.3-2.2,0.9c-0.6,0.6-0.9,1.4-0.9,2.2s0.3,1.6,0.9,2.2c0.6,0.6,1.4,0.9,2.2,0.9
			c0.9,0,1.6-0.3,2.2-0.9c0.6-0.6,0.9-1.4,0.9-2.2S146.9,45.7,146.2,45.1z"/>
		<path class="st0" d="M167.1,47.2c0,0.1,0,0.1,0,0.2c0,2.1-0.6,3.8-2.1,5.3c-1.5,1.5-3.2,2.2-5.3,2.2c-2.1,0-3.8-0.7-5.3-2.2
			c-1.5-1.5-2.2-3.2-2.2-5.3c0-2.1,0.7-3.9,2.2-5.3c1.5-1.5,3.2-2.2,5.3-2.2c2.1,0,3.8,0.7,5.3,2.2l-3.2,2.9
			c-0.6-0.6-1.2-0.8-2.1-0.8c-0.9,0-1.6,0.3-2.2,0.9c-0.6,0.6-0.9,1.4-0.9,2.2s0.3,1.6,0.9,2.2c0.6,0.6,1.4,0.9,2.2,0.9
			c0.9,0,1.6-0.3,2.2-0.9c0.2-0.2,0.3-0.3,0.4-0.5h-2.4v-2.8h7.2C167.1,46.3,167.1,47,167.1,47.2z"/>
	</g>
</g>
</svg>
