<?xml version="1.0" standalone="no"?><!-- Generator: Gravit.io --><svg xmlns="http://www.w3.org/2000/svg" xmlns:xlink="http://www.w3.org/1999/xlink" style="isolation:isolate" viewBox="0 0 200 44" width="200" height="44"><defs><clipPath id="_clipPath_G8ei5xUwXbyDYy5UBNNqiaRRWi2xQUCL"><rect width="200" height="44"/></clipPath></defs><g clip-path="url(#_clipPath_G8ei5xUwXbyDYy5UBNNqiaRRWi2xQUCL)"><clipPath id="_clipPath_1WKVTlfiXZBCkx1cxIAlp8ZGKArkYjSt"><path d=" M 0 0 L 200 0 L 200 43.313 L 0 43.313 L 0 0 Z " fill="rgb(255,255,255)"/></clipPath><g clip-path="url(#_clipPath_1WKVTlfiXZBCkx1cxIAlp8ZGKArkYjSt)"><g><clipPath id="_clipPath_I6qcVLFFb6FDxevjiD26KZS97BBMxUdm"><path d=" M 0 0 L 0 43.313 L 200 43.313 L 200 0 L 0 0 Z " fill="rgb(255,255,255)"/></clipPath><g clip-path="url(#_clipPath_I6qcVLFFb6FDxevjiD26KZS97BBMxUdm)"><g><path d=" M 152.644 1.655 L 143.691 25.296 L 143.033 27.034 L 142.379 25.294 L 133.426 1.5 L 121.12 1.5 L 136.198 41.692 L 149.873 41.692 L 164.951 1.655 L 152.644 1.655 Z " fill="rgb(228,90,56)"/></g></g><clipPath id="_clipPath_StEhXyDDe8OKwh3eqgtMOXv8mb45PyQV"><path d=" M 0 0 L 0 43.313 L 200 43.313 L 200 0 L 0 0 Z " fill="rgb(255,255,255)"/></clipPath><g clip-path="url(#_clipPath_StEhXyDDe8OKwh3eqgtMOXv8mb45PyQV)"><g><path d=" M 152.644 1.655 L 143.691 25.296 L 143.033 27.034 L 142.379 25.294 L 133.426 1.5 L 121.12 1.5 L 136.198 41.692 L 149.873 41.692 L 164.951 1.655 L 152.644 1.655 Z " fill="rgb(228,90,56)"/></g></g><clipPath id="_clipPath_mqjvpiQW23TKfxTAvfUv2m2k9cPkY9Y1"><path d=" M 0 0 L 0 43.313 L 200 43.313 L 200 0 L 0 0 Z " fill="rgb(255,255,255)"/></clipPath><g clip-path="url(#_clipPath_mqjvpiQW23TKfxTAvfUv2m2k9cPkY9Y1)"><g><linearGradient id="_lgradient_0" x1="0.927130265777798" y1="0.747362697117999" x2="0.06621679476463216" y2="0.25031540620309933" gradientTransform="matrix(43.313,0,0,43.303,151.758,0)" gradientUnits="userSpaceOnUse"><stop offset="0%" stop-opacity="1" style="stop-color:rgb(245,144,55)"/><stop offset="68.5102%" stop-opacity="1" style="stop-color:rgb(242,119,57)"/><stop offset="100%" stop-opacity="1" style="stop-color:rgb(228,90,56)"/></linearGradient><path d=" M 172.853 41.75 C 172.853 37.045 175.139 32.883 178.651 30.281 C 177.083 31.261 175.346 31.751 173.384 31.751 C 170.588 31.751 168.25 30.803 166.234 28.853 C 164.294 26.849 163.319 24.443 163.319 21.686 C 163.319 18.905 164.297 16.517 166.226 14.588 C 168.222 12.592 170.564 11.621 173.384 11.621 C 176.165 11.621 178.487 12.592 180.483 14.588 C 182.486 16.465 183.509 18.858 183.509 21.686 C 183.509 24.491 182.489 26.902 180.476 28.853 C 180.145 29.173 179.803 29.455 179.456 29.721 C 181.675 28.301 184.306 27.468 187.136 27.468 C 189.54 27.468 191.801 28.068 193.789 29.117 C 194.64 26.799 195.071 24.318 195.071 21.686 C 195.071 15.728 192.92 10.585 188.678 6.4 C 184.37 2.092 179.368 0 173.384 0 C 167.4 0 162.399 2.092 158.095 6.397 C 153.89 10.602 151.758 15.746 151.758 21.686 C 151.758 27.569 153.891 32.714 158.098 36.979 C 162.309 41.133 167.172 43.202 172.941 43.303 C 172.886 42.793 172.853 42.276 172.853 41.75 L 172.853 41.75 Z " fill="url(#_lgradient_0)"/></g></g><clipPath id="_clipPath_I4dfKO4KZWI2P88sZDkvO3rghexpGBGL"><path d=" M 0 0 L 0 43.313 L 200 43.313 L 200 0 L 0 0 Z " fill="rgb(255,255,255)"/></clipPath><g clip-path="url(#_clipPath_I4dfKO4KZWI2P88sZDkvO3rghexpGBGL)"><g><path d=" M 22.988 26.147 L 30.799 26.147 L 30.073 27.237 C 29.72 27.767 29.292 28.278 28.724 28.845 C 26.796 30.773 24.408 31.751 21.626 31.751 C 18.869 31.751 16.464 30.776 14.476 28.853 C 12.537 26.85 11.561 24.444 11.561 21.686 C 11.561 18.904 12.539 16.516 14.468 14.588 C 16.436 12.62 18.845 11.621 21.626 11.621 C 24.337 11.621 26.132 12.215 27.816 13.707 L 36.389 5.884 C 32.205 1.926 27.368 0 21.626 0 C 15.725 0 10.581 2.152 6.337 6.397 C 2.131 10.546 0 15.688 0 21.686 C 0 27.627 2.132 32.771 6.337 36.976 C 10.599 41.18 15.745 43.313 21.626 43.313 C 27.591 43.313 32.594 41.239 36.92 36.972 C 40.937 32.955 42.892 27.953 42.892 21.686 L 42.892 19.327 L 22.988 19.327 L 22.988 26.147 L 22.988 26.147 Z " fill="rgb(245,144,55)"/></g></g><clipPath id="_clipPath_Y6EmiDIdjiLh9t5jUpR3elxaMUbJdWBj"><path d=" M 0 0 L 0 43.313 L 200 43.313 L 200 0 L 0 0 Z " fill="rgb(255,255,255)"/></clipPath><g clip-path="url(#_clipPath_Y6EmiDIdjiLh9t5jUpR3elxaMUbJdWBj)"><g><linearGradient id="_lgradient_1" x1="0" y1="0.5" x2="1" y2="0.5" gradientTransform="matrix(42.445,0,0,40.31,29.878,1.44)" gradientUnits="userSpaceOnUse"><stop offset="0%" stop-opacity="1" style="stop-color:rgb(245,144,55)"/><stop offset="68.5102%" stop-opacity="1" style="stop-color:rgb(242,119,57)"/><stop offset="100%" stop-opacity="1" style="stop-color:rgb(228,90,56)"/></linearGradient><path d=" M 54.042 27.01 L 47.173 27.01 L 47.497 26.078 L 50.438 17.615 L 51.1 15.708 L 51.763 17.615 L 54.704 26.078 L 55.028 27.01 L 54.042 27.01 L 54.042 27.01 Z  M 72.323 41.692 L 58.344 1.44 L 43.857 1.44 L 29.878 41.697 L 42.08 41.75 L 43.836 36.702 L 43.999 36.23 L 58.26 36.23 L 58.425 36.699 L 60.18 41.692 L 72.323 41.692 L 72.323 41.692 Z " fill-rule="evenodd" fill="url(#_lgradient_1)"/></g></g><clipPath id="_clipPath_PrLZwbbn5qSJq117Ty7VgoDmeb6bR4Qe"><path d=" M 0 0 L 0 43.313 L 200 43.313 L 200 0 L 0 0 Z " fill="rgb(255,255,255)"/></clipPath><g clip-path="url(#_clipPath_PrLZwbbn5qSJq117Ty7VgoDmeb6bR4Qe)"><g><path d=" M 29.99 41.697 C 32.487 40.645 34.786 39.077 36.92 36.972 C 40.937 32.955 42.892 27.953 42.892 21.686 L 42.892 19.327 L 37.646 19.327 L 29.878 41.697 L 29.99 41.697 Z " fill="rgb(228,90,56)"/></g></g><clipPath id="_clipPath_IUKc0PmogOwFZLKG11UDRfS4dJKM4WGo"><path d=" M 0 0 L 0 43.313 L 200 43.313 L 200 0 L 0 0 Z " fill="rgb(255,255,255)"/></clipPath><g clip-path="url(#_clipPath_IUKc0PmogOwFZLKG11UDRfS4dJKM4WGo)"><g><path d=" M 87.673 12.87 L 87.115 13.598 L 86.559 12.869 L 77.886 1.5 L 77.472 1.5 L 77.472 1.44 L 65.971 1.44 L 65.971 41.692 L 77.472 41.692 L 77.472 19.959 L 78.733 21.623 L 87.175 32.767 L 95.44 21.804 L 96.702 20.13 L 96.702 41.692 L 108.203 41.692 L 108.203 1.44 L 96.439 1.44 L 87.673 12.87 L 87.673 12.87 Z " fill="rgb(228,90,56)"/></g></g><clipPath id="_clipPath_R4WDPVqPqf4191BsmEFUS44mi1OIBwDR"><path d=" M 0 0 L 0 43.313 L 200 43.313 L 200 0 L 0 0 Z " fill="rgb(255,255,255)"/></clipPath><g clip-path="url(#_clipPath_R4WDPVqPqf4191BsmEFUS44mi1OIBwDR)"><g><path d=" M 65.971 41.692 L 72.323 41.692 L 65.971 23.401 L 65.971 41.692 Z " fill="rgb(191,53,61)"/></g></g><clipPath id="_clipPath_PYEbpepo7m90QiEXzM0LcP2oCNeXLoCh"><path d=" M 0 0 L 0 43.313 L 200 43.313 L 200 0 L 0 0 Z " fill="rgb(255,255,255)"/></clipPath><g clip-path="url(#_clipPath_PYEbpepo7m90QiEXzM0LcP2oCNeXLoCh)"><g><path d=" M 125.071 1.5 L 113.509 1.5 L 113.509 12.052 L 125.071 12.052 L 125.071 1.5 Z " fill="rgb(245,144,55)"/></g></g><clipPath id="_clipPath_jjFrWIF0Ik8ANoQEhCpEJ0DXPkliryEu"><path d=" M 0 0 L 0 43.313 L 200 43.313 L 200 0 L 0 0 Z " fill="rgb(255,255,255)"/></clipPath><g clip-path="url(#_clipPath_jjFrWIF0Ik8ANoQEhCpEJ0DXPkliryEu)"><g><linearGradient id="_lgradient_2" x1="0.5" y1="0" x2="0.49999999999999983" y2="0.9999999999999999" gradientTransform="matrix(11.561,0,0,24.334,113.509,17.358)" gradientUnits="userSpaceOnUse"><stop offset="0%" stop-opacity="1" style="stop-color:rgb(245,144,55)"/><stop offset="68.5102%" stop-opacity="1" style="stop-color:rgb(242,119,57)"/><stop offset="100%" stop-opacity="1" style="stop-color:rgb(228,90,56)"/></linearGradient><path d=" M 113.509 17.358 L 113.509 41.692 L 125.071 41.692 L 125.071 17.358 L 113.509 17.358 Z " fill="url(#_lgradient_2)"/></g></g><clipPath id="_clipPath_w0ZqISwkhOE3xv69po892sCDVis9isd1"><path d=" M 0 0 L 0 43.313 L 200 43.313 L 200 0 L 0 0 Z " fill="rgb(255,255,255)"/></clipPath><g clip-path="url(#_clipPath_w0ZqISwkhOE3xv69po892sCDVis9isd1)"><g><path d=" M 158.095 6.397 C 153.89 10.602 151.758 15.746 151.758 21.686 C 151.758 25.071 152.468 28.21 153.869 31.08 L 164.951 1.655 C 162.477 2.716 160.202 4.29 158.095 6.397 L 158.095 6.397 Z " fill="rgb(191,53,61)"/></g></g><clipPath id="_clipPath_rBkObqc3ySsK3gPEy12PGBg9LD1KGn3I"><path d=" M 0 0 L 0 43.313 L 200 43.313 L 200 0 L 0 0 Z " fill="rgb(255,255,255)"/></clipPath><g clip-path="url(#_clipPath_rBkObqc3ySsK3gPEy12PGBg9LD1KGn3I)"><g><path d=" M 125.071 12.031 L 125.071 1.5 L 121.12 1.5 L 125.071 12.031 Z " fill="rgb(191,53,61)"/></g></g><clipPath id="_clipPath_oKfiKyW4O0hDQxj1GVeVQGt6fOLm4J65"><path d=" M 0 0 L 0 43.313 L 200 43.313 L 200 0 L 0 0 Z " fill="rgb(255,255,255)"/></clipPath><g clip-path="url(#_clipPath_oKfiKyW4O0hDQxj1GVeVQGt6fOLm4J65)"><g><path d=" M 177.683 41.268 C 177.129 41.268 176.686 40.836 176.686 40.282 C 176.686 39.739 177.129 39.285 177.683 39.285 C 178.225 39.285 178.679 39.739 178.679 40.282 C 178.679 40.836 178.225 41.268 177.683 41.268 Z " fill="rgb(245,144,55)"/></g></g><clipPath id="_clipPath_I9YBb2TXJYvkNBzwsUFFqVdCkjhVdDOC"><path d=" M 0 0 L 0 43.313 L 200 43.313 L 200 0 L 0 0 Z " fill="rgb(255,255,255)"/></clipPath><g clip-path="url(#_clipPath_I9YBb2TXJYvkNBzwsUFFqVdCkjhVdDOC)"><g><linearGradient id="_lgradient_3" x1="-3.552713678800501e-15" y1="0.4999999999999991" x2="0.9999999999999964" y2="0.4999999999999991" gradientTransform="matrix(8.251,0,0,8.25,184.926,33.305)" gradientUnits="userSpaceOnUse"><stop offset="0%" stop-opacity="1" style="stop-color:rgb(245,144,55)"/><stop offset="68.5102%" stop-opacity="1" style="stop-color:rgb(242,119,57)"/><stop offset="100%" stop-opacity="1" style="stop-color:rgb(228,90,56)"/></linearGradient><path d=" M 190.264 36.217 C 189.92 35.874 189.522 35.708 189.046 35.708 C 188.558 35.708 188.16 35.874 187.816 36.217 C 187.484 36.55 187.318 36.96 187.318 37.436 C 187.318 37.912 187.484 38.322 187.816 38.665 C 188.16 38.997 188.558 39.163 189.046 39.163 C 189.522 39.163 189.92 38.997 190.264 38.665 C 190.618 38.322 190.784 37.912 190.784 37.436 C 190.784 36.96 190.618 36.55 190.264 36.217 L 190.264 36.217 Z  M 191.958 40.348 C 191.149 41.146 190.186 41.556 189.046 41.556 C 187.905 41.556 186.942 41.146 186.133 40.348 C 185.336 39.54 184.926 38.566 184.926 37.436 C 184.926 36.295 185.336 35.321 186.133 34.523 C 186.942 33.715 187.905 33.305 189.046 33.305 C 190.186 33.305 191.149 33.715 191.958 34.523 C 192.767 35.321 193.176 36.295 193.176 37.436 C 193.176 38.566 192.767 39.54 191.958 40.348 Z " fill-rule="evenodd" fill="url(#_lgradient_3)"/></g></g><clipPath id="_clipPath_ycNJ7S4gugYxX9WIZf6XxCB1ElikuoVJ"><path d=" M 0 0 L 0 43.313 L 200 43.313 L 200 0 L 0 0 Z " fill="rgb(255,255,255)"/></clipPath><g clip-path="url(#_clipPath_ycNJ7S4gugYxX9WIZf6XxCB1ElikuoVJ)"><g><path d=" M 184.298 38.725 C 183.954 39.034 183.437 39.108 182.98 39.108 C 182.504 39.108 182.017 38.975 181.684 38.632 C 181.341 38.3 181.241 37.912 181.241 37.436 C 181.241 36.96 181.408 36.55 181.751 36.217 C 182.083 35.874 182.504 35.708 182.98 35.708 C 183.457 35.708 183.866 35.874 184.21 36.217 C 184.22 36.229 184.22 36.229 184.232 36.24 L 184.299 36.139 C 184.497 35.389 184.875 34.716 185.426 34.12 C 184.923 33.769 184.036 33.305 182.98 33.305 C 181.851 33.305 180.876 33.704 180.068 34.512 C 179.259 35.321 178.86 36.295 178.86 37.436 C 178.86 38.566 179.259 39.54 180.068 40.348 C 180.876 41.157 181.851 41.556 182.98 41.556 C 184.064 41.556 184.641 41.441 185.47 40.801 C 184.894 40.186 184.502 39.493 184.298 38.725 L 184.298 38.725 Z " fill="rgb(245,144,55)"/></g></g><clipPath id="_clipPath_Avm6rFOo4G4n5zI6uT1e5ZgXj4TwCeIP"><path d=" M 0 0 L 0 43.313 L 200 43.313 L 200 0 L 0 0 Z " fill="rgb(255,255,255)"/></clipPath><g clip-path="url(#_clipPath_Avm6rFOo4G4n5zI6uT1e5ZgXj4TwCeIP)"><g><path d=" M 197.619 33.571 L 197.619 33.593 L 195.98 35.73 L 194.341 33.582 L 194.33 33.582 L 194.33 33.571 L 191.98 33.571 C 192.15 33.704 192.317 33.845 192.476 34.005 C 193.429 34.945 193.912 36.093 193.912 37.437 C 193.912 38.768 193.429 39.916 192.476 40.869 C 192.334 41.01 192.185 41.136 192.034 41.257 L 194.33 41.257 L 194.33 37.503 L 195.991 39.695 L 197.619 37.535 L 197.619 41.257 L 200 41.257 L 200 33.571 L 197.619 33.571 L 197.619 33.571 Z " fill="rgb(228,90,56)"/></g></g><clipPath id="_clipPath_sgNwW2MpaiIk8cDUfX8MhIADKkItqBEZ"><path d=" M 0 0 L 0 43.313 L 200 43.313 L 200 0 L 0 0 Z " fill="rgb(255,255,255)"/></clipPath><g clip-path="url(#_clipPath_sgNwW2MpaiIk8cDUfX8MhIADKkItqBEZ)"><g><linearGradient id="_lgradient_4" x1="0.927130265777798" y1="0.747362697117999" x2="0.06621679476463216" y2="0.25031540620309933" gradientTransform="matrix(43.313,0,0,43.303,151.758,0)" gradientUnits="userSpaceOnUse"><stop offset="0%" stop-opacity="1" style="stop-color:rgb(245,144,55)"/><stop offset="68.5102%" stop-opacity="1" style="stop-color:rgb(242,119,57)"/><stop offset="100%" stop-opacity="1" style="stop-color:rgb(228,90,56)"/></linearGradient><path d=" M 172.853 41.75 C 172.853 37.045 175.139 32.883 178.651 30.281 C 177.083 31.261 175.346 31.751 173.384 31.751 C 170.588 31.751 168.25 30.803 166.234 28.853 C 164.294 26.849 163.319 24.443 163.319 21.686 C 163.319 18.905 164.297 16.517 166.226 14.588 C 168.222 12.592 170.564 11.621 173.384 11.621 C 176.165 11.621 178.487 12.592 180.483 14.588 C 182.486 16.465 183.509 18.858 183.509 21.686 C 183.509 24.491 182.489 26.902 180.476 28.853 C 180.145 29.173 179.803 29.455 179.456 29.721 C 181.675 28.301 184.306 27.468 187.136 27.468 C 189.54 27.468 191.801 28.068 193.789 29.117 C 194.64 26.799 195.071 24.318 195.071 21.686 C 195.071 15.728 192.92 10.585 188.678 6.4 C 184.37 2.092 179.368 0 173.384 0 C 167.4 0 162.399 2.092 158.095 6.397 C 153.89 10.602 151.758 15.746 151.758 21.686 C 151.758 27.569 153.891 32.714 158.098 36.979 C 162.309 41.133 167.172 43.202 172.941 43.303 C 172.886 42.793 172.853 42.276 172.853 41.75 L 172.853 41.75 Z " fill="url(#_lgradient_4)"/></g></g><clipPath id="_clipPath_RcoRPE7slUuT6QtGaGyXOxfpOamwdcCa"><path d=" M 0 0 L 0 43.313 L 200 43.313 L 200 0 L 0 0 Z " fill="rgb(255,255,255)"/></clipPath><g clip-path="url(#_clipPath_RcoRPE7slUuT6QtGaGyXOxfpOamwdcCa)"><g><path d=" M 22.988 26.147 L 30.799 26.147 L 30.073 27.237 C 29.72 27.767 29.292 28.278 28.724 28.845 C 26.796 30.773 24.408 31.751 21.626 31.751 C 18.869 31.751 16.464 30.776 14.476 28.853 C 12.537 26.85 11.561 24.444 11.561 21.686 C 11.561 18.904 12.539 16.516 14.468 14.588 C 16.436 12.62 18.845 11.621 21.626 11.621 C 24.337 11.621 26.132 12.215 27.816 13.707 L 36.389 5.884 C 32.205 1.926 27.368 0 21.626 0 C 15.725 0 10.581 2.152 6.337 6.397 C 2.131 10.546 0 15.688 0 21.686 C 0 27.627 2.132 32.771 6.337 36.976 C 10.599 41.18 15.745 43.313 21.626 43.313 C 27.591 43.313 32.594 41.239 36.92 36.972 C 40.937 32.955 42.892 27.953 42.892 21.686 L 42.892 19.327 L 22.988 19.327 L 22.988 26.147 L 22.988 26.147 Z " fill="rgb(245,144,55)"/></g></g><clipPath id="_clipPath_37wDiDd6fb14oyrrlLrCO046f1xI5aOs"><path d=" M 0 0 L 0 43.313 L 200 43.313 L 200 0 L 0 0 Z " fill="rgb(255,255,255)"/></clipPath><g clip-path="url(#_clipPath_37wDiDd6fb14oyrrlLrCO046f1xI5aOs)"><g><linearGradient id="_lgradient_5" x1="0" y1="0.5" x2="1" y2="0.5" gradientTransform="matrix(42.445,0,0,40.31,29.878,1.44)" gradientUnits="userSpaceOnUse"><stop offset="0%" stop-opacity="1" style="stop-color:rgb(245,144,55)"/><stop offset="68.5102%" stop-opacity="1" style="stop-color:rgb(242,119,57)"/><stop offset="100%" stop-opacity="1" style="stop-color:rgb(228,90,56)"/></linearGradient><path d=" M 54.042 27.01 L 47.173 27.01 L 47.497 26.078 L 50.438 17.615 L 51.1 15.708 L 51.763 17.615 L 54.704 26.078 L 55.028 27.01 L 54.042 27.01 L 54.042 27.01 Z  M 72.323 41.692 L 58.344 1.44 L 43.857 1.44 L 29.878 41.697 L 42.08 41.75 L 43.836 36.702 L 43.999 36.23 L 58.26 36.23 L 58.425 36.699 L 60.18 41.692 L 72.323 41.692 L 72.323 41.692 Z " fill-rule="evenodd" fill="url(#_lgradient_5)"/></g></g><clipPath id="_clipPath_X4IqHmsLxiQQ5UZpKIwlIoRJDK8gA6cn"><path d=" M 0 0 L 0 43.313 L 200 43.313 L 200 0 L 0 0 Z " fill="rgb(255,255,255)"/></clipPath><g clip-path="url(#_clipPath_X4IqHmsLxiQQ5UZpKIwlIoRJDK8gA6cn)"><g><path d=" M 29.99 41.697 C 32.487 40.645 34.786 39.077 36.92 36.972 C 40.937 32.955 42.892 27.953 42.892 21.686 L 42.892 19.327 L 37.646 19.327 L 29.878 41.697 L 29.99 41.697 Z " fill="rgb(228,90,56)"/></g></g><clipPath id="_clipPath_FrTge6InZoefoozLV2D2k6kaUB8P6pfw"><path d=" M 0 0 L 0 43.313 L 200 43.313 L 200 0 L 0 0 Z " fill="rgb(255,255,255)"/></clipPath><g clip-path="url(#_clipPath_FrTge6InZoefoozLV2D2k6kaUB8P6pfw)"><g><path d=" M 87.673 12.87 L 87.115 13.598 L 86.559 12.869 L 77.886 1.5 L 77.472 1.5 L 77.472 1.44 L 65.971 1.44 L 65.971 41.692 L 77.472 41.692 L 77.472 19.959 L 78.733 21.623 L 87.175 32.767 L 95.44 21.804 L 96.702 20.13 L 96.702 41.692 L 108.203 41.692 L 108.203 1.44 L 96.439 1.44 L 87.673 12.87 L 87.673 12.87 Z " fill="rgb(228,90,56)"/></g></g><clipPath id="_clipPath_VNZwDy8smC8uX3pjqHHurNPL0hqyOzg0"><path d=" M 0 0 L 0 43.313 L 200 43.313 L 200 0 L 0 0 Z " fill="rgb(255,255,255)"/></clipPath><g clip-path="url(#_clipPath_VNZwDy8smC8uX3pjqHHurNPL0hqyOzg0)"><g><path d=" M 65.971 41.692 L 72.323 41.692 L 65.971 23.401 L 65.971 41.692 Z " fill="rgb(191,53,61)"/></g></g><clipPath id="_clipPath_9uU2ErwtdJ60lmoi4s6zcHdovBj5Gylt"><path d=" M 0 0 L 0 43.313 L 200 43.313 L 200 0 L 0 0 Z " fill="rgb(255,255,255)"/></clipPath><g clip-path="url(#_clipPath_9uU2ErwtdJ60lmoi4s6zcHdovBj5Gylt)"><g><path d=" M 125.071 1.5 L 113.509 1.5 L 113.509 12.052 L 125.071 12.052 L 125.071 1.5 Z " fill="rgb(245,144,55)"/></g></g><clipPath id="_clipPath_ZqYqPLpIwJmhiVI2ob7hJGUwjOTOYvWw"><path d=" M 0 0 L 0 43.313 L 200 43.313 L 200 0 L 0 0 Z " fill="rgb(255,255,255)"/></clipPath><g clip-path="url(#_clipPath_ZqYqPLpIwJmhiVI2ob7hJGUwjOTOYvWw)"><g><linearGradient id="_lgradient_6" x1="0.5" y1="0" x2="0.49999999999999983" y2="0.9999999999999999" gradientTransform="matrix(11.561,0,0,24.334,113.509,17.358)" gradientUnits="userSpaceOnUse"><stop offset="0%" stop-opacity="1" style="stop-color:rgb(245,144,55)"/><stop offset="68.5102%" stop-opacity="1" style="stop-color:rgb(242,119,57)"/><stop offset="100%" stop-opacity="1" style="stop-color:rgb(228,90,56)"/></linearGradient><path d=" M 113.509 17.358 L 113.509 41.692 L 125.071 41.692 L 125.071 17.358 L 113.509 17.358 Z " fill="url(#_lgradient_6)"/></g></g><clipPath id="_clipPath_UWSKpoDflkiRtKbe6kSkPUuPBXZ2XfZW"><path d=" M 0 0 L 0 43.313 L 200 43.313 L 200 0 L 0 0 Z " fill="rgb(255,255,255)"/></clipPath><g clip-path="url(#_clipPath_UWSKpoDflkiRtKbe6kSkPUuPBXZ2XfZW)"><g><path d=" M 158.095 6.397 C 153.89 10.602 151.758 15.746 151.758 21.686 C 151.758 25.071 152.468 28.21 153.869 31.08 L 164.951 1.655 C 162.477 2.716 160.202 4.29 158.095 6.397 L 158.095 6.397 Z " fill="rgb(191,53,61)"/></g></g><clipPath id="_clipPath_rNDR4aIEEVk76YbDXEDBZ3Hu4aIpetMY"><path d=" M 0 0 L 0 43.313 L 200 43.313 L 200 0 L 0 0 Z " fill="rgb(255,255,255)"/></clipPath><g clip-path="url(#_clipPath_rNDR4aIEEVk76YbDXEDBZ3Hu4aIpetMY)"><g><path d=" M 125.071 12.031 L 125.071 1.5 L 121.12 1.5 L 125.071 12.031 Z " fill="rgb(191,53,61)"/></g></g><clipPath id="_clipPath_iOo02yaWrIbI3L0rFrsiVqwKdCjupjsJ"><path d=" M 0 0 L 0 43.313 L 200 43.313 L 200 0 L 0 0 Z " fill="rgb(255,255,255)"/></clipPath><g clip-path="url(#_clipPath_iOo02yaWrIbI3L0rFrsiVqwKdCjupjsJ)"><g><path d=" M 177.683 41.268 C 177.129 41.268 176.686 40.836 176.686 40.282 C 176.686 39.739 177.129 39.285 177.683 39.285 C 178.225 39.285 178.679 39.739 178.679 40.282 C 178.679 40.836 178.225 41.268 177.683 41.268 Z " fill="rgb(245,144,55)"/></g></g><clipPath id="_clipPath_kp9fwZDHYAA6tK9ogDBZNS4RfmEtNPjg"><path d=" M 0 0 L 0 43.313 L 200 43.313 L 200 0 L 0 0 Z " fill="rgb(255,255,255)"/></clipPath><g clip-path="url(#_clipPath_kp9fwZDHYAA6tK9ogDBZNS4RfmEtNPjg)"><g><linearGradient id="_lgradient_7" x1="-3.552713678800501e-15" y1="0.4999999999999991" x2="0.9999999999999964" y2="0.4999999999999991" gradientTransform="matrix(8.251,0,0,8.25,184.926,33.305)" gradientUnits="userSpaceOnUse"><stop offset="0%" stop-opacity="1" style="stop-color:rgb(245,144,55)"/><stop offset="68.5102%" stop-opacity="1" style="stop-color:rgb(242,119,57)"/><stop offset="100%" stop-opacity="1" style="stop-color:rgb(228,90,56)"/></linearGradient><path d=" M 190.264 36.217 C 189.92 35.874 189.522 35.708 189.046 35.708 C 188.558 35.708 188.16 35.874 187.816 36.217 C 187.484 36.55 187.318 36.96 187.318 37.436 C 187.318 37.912 187.484 38.322 187.816 38.665 C 188.16 38.997 188.558 39.163 189.046 39.163 C 189.522 39.163 189.92 38.997 190.264 38.665 C 190.618 38.322 190.784 37.912 190.784 37.436 C 190.784 36.96 190.618 36.55 190.264 36.217 L 190.264 36.217 Z  M 191.958 40.348 C 191.149 41.146 190.186 41.556 189.046 41.556 C 187.905 41.556 186.942 41.146 186.133 40.348 C 185.336 39.54 184.926 38.566 184.926 37.436 C 184.926 36.295 185.336 35.321 186.133 34.523 C 186.942 33.715 187.905 33.305 189.046 33.305 C 190.186 33.305 191.149 33.715 191.958 34.523 C 192.767 35.321 193.176 36.295 193.176 37.436 C 193.176 38.566 192.767 39.54 191.958 40.348 Z " fill-rule="evenodd" fill="url(#_lgradient_7)"/></g></g><clipPath id="_clipPath_tta1sVIeH9XiaosPOGat16ZwqStp9n3f"><path d=" M 0 0 L 0 43.313 L 200 43.313 L 200 0 L 0 0 Z " fill="rgb(255,255,255)"/></clipPath><g clip-path="url(#_clipPath_tta1sVIeH9XiaosPOGat16ZwqStp9n3f)"><g><path d=" M 184.298 38.725 C 183.954 39.034 183.437 39.108 182.98 39.108 C 182.504 39.108 182.017 38.975 181.684 38.632 C 181.341 38.3 181.241 37.912 181.241 37.436 C 181.241 36.96 181.408 36.55 181.751 36.217 C 182.083 35.874 182.504 35.708 182.98 35.708 C 183.457 35.708 183.866 35.874 184.21 36.217 C 184.22 36.229 184.22 36.229 184.232 36.24 L 184.299 36.139 C 184.497 35.389 184.875 34.716 185.426 34.12 C 184.923 33.769 184.036 33.305 182.98 33.305 C 181.851 33.305 180.876 33.704 180.068 34.512 C 179.259 35.321 178.86 36.295 178.86 37.436 C 178.86 38.566 179.259 39.54 180.068 40.348 C 180.876 41.157 181.851 41.556 182.98 41.556 C 184.064 41.556 184.641 41.441 185.47 40.801 C 184.894 40.186 184.502 39.493 184.298 38.725 L 184.298 38.725 Z " fill="rgb(245,144,55)"/></g></g><clipPath id="_clipPath_MvX5B2oKS389GQNHhpln2aOPTDSBtWDi"><path d=" M 0 0 L 0 43.313 L 200 43.313 L 200 0 L 0 0 Z " fill="rgb(255,255,255)"/></clipPath><g clip-path="url(#_clipPath_MvX5B2oKS389GQNHhpln2aOPTDSBtWDi)"><g><path d=" M 197.619 33.571 L 197.619 33.593 L 195.98 35.73 L 194.341 33.582 L 194.33 33.582 L 194.33 33.571 L 191.98 33.571 C 192.15 33.704 192.317 33.845 192.476 34.005 C 193.429 34.945 193.912 36.093 193.912 37.437 C 193.912 38.768 193.429 39.916 192.476 40.869 C 192.334 41.01 192.185 41.136 192.034 41.257 L 194.33 41.257 L 194.33 37.503 L 195.991 39.695 L 197.619 37.535 L 197.619 41.257 L 200 41.257 L 200 33.571 L 197.619 33.571 L 197.619 33.571 Z " fill="rgb(228,90,56)"/></g></g></g></g></g></svg>