<?xml version="1.0" encoding="utf-8"?>
<!-- Generator: Adobe Illustrator 25.0.1, SVG Export Plug-In . SVG Version: 6.00 Build 0)  -->
<svg version="1.1" xmlns="http://www.w3.org/2000/svg" xmlns:xlink="http://www.w3.org/1999/xlink" x="0px" y="0px" width="350px"
	 height="117.3px" viewBox="0 0 350 117.3" style="enable-background:new 0 0 350 117.3;" xml:space="preserve">
<style type="text/css">
	.st0{fill:#F05123;}
	.st1{clip-path:url(#SVGID_2_);fill:url(#SVGID_3_);}
	.st2{fill:#F68C22;}
	.st3{clip-path:url(#SVGID_5_);fill:url(#SVGID_6_);}
	.st4{fill:#E65025;}
	.st5{fill:#BE1E2D;}
	.st6{clip-path:url(#SVGID_8_);fill:url(#SVGID_9_);}
	.st7{clip-path:url(#SVGID_11_);fill:url(#SVGID_12_);}
	.st8{clip-path:url(#SVGID_14_);fill:url(#SVGID_15_);}
	.st9{clip-path:url(#SVGID_17_);fill:url(#SVGID_18_);}
</style>
<g id="Layer_1">
	<g>
		<polygon class="st0" points="264.1,11.3 249,51.1 247.9,54 246.8,51.1 231.7,11 211,11 236.4,78.7 259.4,78.7 284.8,11.3 		"/>
		<g>
			<defs>
				<path id="SVGID_1_" d="M273.2,19.2c-7.1,7.1-10.7,15.7-10.7,25.8c0,9.9,3.6,18.6,10.7,25.8c7.1,7,15.3,10.5,25,10.7
					c-0.1-0.9-0.2-1.7-0.2-2.6c0-7.9,3.9-14.9,9.8-19.3c-2.6,1.6-5.6,2.5-8.9,2.5c-4.7,0-8.7-1.6-12-4.9c-3.3-3.4-4.9-7.4-4.9-12.1
					c0-4.7,1.7-8.7,4.9-12c3.4-3.4,7.3-5,12.1-5c4.7,0,8.6,1.6,12,5c3.4,3.2,5.1,7.2,5.1,12c0,4.7-1.7,8.8-5.1,12.1
					c-0.6,0.5-1.1,1-1.7,1.5c3.7-2.4,8.2-3.8,12.9-3.8c4,0,7.9,1,11.2,2.8c1.4-3.9,2.2-8.1,2.2-12.5c0-10-3.6-18.7-10.8-25.8
					C317.5,12,309.1,8.5,299,8.5S280.5,12,273.2,19.2"/>
			</defs>
			<clipPath id="SVGID_2_">
				<use xlink:href="#SVGID_1_"  style="overflow:visible;"/>
			</clipPath>
			
				<linearGradient id="SVGID_3_" gradientUnits="userSpaceOnUse" x1="-160.0627" y1="695.1408" x2="-159.5674" y2="695.1408" gradientTransform="matrix(-126.8146 -73.2164 -73.2164 126.8146 30927.6367 -99810.2812)">
				<stop  offset="0" style="stop-color:#F68C22"/>
				<stop  offset="0.6851" style="stop-color:#F37126"/>
				<stop  offset="1" style="stop-color:#F05123"/>
			</linearGradient>
			<polygon class="st1" points="317.3,113 231,63.2 280.8,-23.1 367.1,26.7 			"/>
		</g>
		<path class="st2" d="M45.6,52.5h11h2.2l-1.2,1.8c-0.6,0.9-1.3,1.8-2.3,2.7c-3.2,3.2-7.3,4.9-12,4.9c-4.6,0-8.7-1.6-12-4.9
			c-3.3-3.4-4.9-7.4-4.9-12.1c0-4.7,1.6-8.7,4.9-12c3.3-3.3,7.4-5,12.1-5c4.6,0,7.6,1,10.4,3.5l14.4-13.2C61.2,11.7,53,8.5,43.4,8.5
			c-9.9,0-18.6,3.6-25.8,10.8C10.5,26.2,6.9,34.9,6.9,45c0,10,3.6,18.7,10.7,25.8c7.2,7.1,15.8,10.7,25.8,10.7
			c10,0,18.5-3.5,25.8-10.7C75.9,64,79.2,55.6,79.2,45v-0.9V41H45.6V52.5z"/>
		<g>
			<defs>
				<path id="SVGID_4_" d="M86.9,52.4l5-14.3l1.1-3.2l1.1,3.2l5,14.3l0.5,1.6H98h-9.9h-1.7L86.9,52.4z M80.8,10.9L57.3,78.7
					l20.6,0.1l3-8.5l0.3-0.8h0.8h22.3h0.8l0.3,0.8l3,8.4h20.5l-23.6-67.8H80.8z"/>
			</defs>
			<clipPath id="SVGID_5_">
				<use xlink:href="#SVGID_4_"  style="overflow:visible;"/>
			</clipPath>
			
				<linearGradient id="SVGID_6_" gradientUnits="userSpaceOnUse" x1="-162.4997" y1="698.9734" x2="-162.0043" y2="698.9734" gradientTransform="matrix(144.3504 0 0 -144.3504 23514.1543 100941.9375)">
				<stop  offset="0" style="stop-color:#F68C22"/>
				<stop  offset="0.6851" style="stop-color:#F37126"/>
				<stop  offset="1" style="stop-color:#F05123"/>
			</linearGradient>
			<rect x="57.3" y="10.9" class="st3" width="71.5" height="67.9"/>
		</g>
		<path class="st4" d="M57.5,78.7c4.2-1.8,8.1-4.4,11.7-8C75.9,64,79.2,55.6,79.2,45v-0.9V41h-8.8L57.3,78.7L57.5,78.7z"/>
		<polygon class="st4" points="154.6,30.2 153.7,31.4 152.7,30.1 138.1,11 137.4,11 137.4,10.9 118.1,10.9 118.1,78.7 137.4,78.7 
			137.4,45.6 137.4,42.1 139.6,44.9 153.8,63.7 167.7,45.2 169.8,42.4 169.8,45.9 169.8,78.7 189.2,78.7 189.2,10.9 169.4,10.9 		
			"/>
		<polygon class="st5" points="118.1,78.7 128.8,78.7 118.1,47.9 		"/>
		<rect x="198.1" y="11" class="st2" width="19.5" height="17.8"/>
		<g>
			<defs>
				<rect id="SVGID_7_" x="198.1" y="37.7" width="19.5" height="41"/>
			</defs>
			<clipPath id="SVGID_8_">
				<use xlink:href="#SVGID_7_"  style="overflow:visible;"/>
			</clipPath>
			
				<linearGradient id="SVGID_9_" gradientUnits="userSpaceOnUse" x1="-166.943" y1="695.1274" x2="-166.4477" y2="695.1274" gradientTransform="matrix(0 82.7555 82.7555 0 -57317.7461 13853.1641)">
				<stop  offset="0" style="stop-color:#F68C22"/>
				<stop  offset="0.6851" style="stop-color:#F37226"/>
				<stop  offset="1" style="stop-color:#E55025"/>
			</linearGradient>
			<rect x="198.1" y="37.7" class="st6" width="19.5" height="41"/>
		</g>
		<path class="st5" d="M273.2,19.2c-7.1,7.1-10.7,15.7-10.7,25.8c0,5.7,1.2,11,3.6,15.8l18.7-49.6C280.6,13,276.8,15.7,273.2,19.2"
			/>
		<polygon class="st5" points="217.6,28.7 217.6,11 211,11 		"/>
		<path class="st2" d="M306.2,78c-0.9,0-1.7-0.7-1.7-1.7c0-0.9,0.7-1.7,1.7-1.7c0.9,0,1.7,0.8,1.7,1.7C307.9,77.3,307.2,78,306.2,78
			"/>
		<g>
			<defs>
				<path id="SVGID_10_" d="M323.3,73.6c-0.6-0.6-0.8-1.3-0.8-2.1c0-0.8,0.3-1.5,0.8-2.1c0.6-0.6,1.2-0.9,2.1-0.9
					c0.8,0,1.5,0.3,2,0.9c0.6,0.6,0.9,1.3,0.9,2.1c0,0.8-0.3,1.5-0.9,2.1c-0.6,0.6-1.2,0.8-2,0.8C324.6,74.4,323.9,74.2,323.3,73.6
					 M320.5,66.6c-1.3,1.3-2,3-2,4.9c0,1.9,0.7,3.5,2,4.9c1.4,1.3,3,2,4.9,2c1.9,0,3.5-0.7,4.9-2c1.4-1.4,2.1-3,2.1-4.9
					c0-1.9-0.7-3.6-2.1-4.9c-1.4-1.4-3-2.1-4.9-2.1C323.5,64.6,321.8,65.3,320.5,66.6"/>
			</defs>
			<clipPath id="SVGID_11_">
				<use xlink:href="#SVGID_10_"  style="overflow:visible;"/>
			</clipPath>
			
				<linearGradient id="SVGID_12_" gradientUnits="userSpaceOnUse" x1="-170.9073" y1="710.0991" x2="-170.4119" y2="710.0991" gradientTransform="matrix(28.0594 0 0 -28.0594 5113.9976 19996.4805)">
				<stop  offset="0" style="stop-color:#F68C22"/>
				<stop  offset="0.6851" style="stop-color:#F37226"/>
				<stop  offset="1" style="stop-color:#E55025"/>
			</linearGradient>
			<rect x="318.4" y="64.6" class="st7" width="13.9" height="13.9"/>
		</g>
		<path class="st2" d="M317.4,73.7c-0.6,0.5-1.4,0.6-2.2,0.6c-0.8,0-1.6-0.2-2.2-0.8c-0.6-0.6-0.7-1.2-0.7-2c0-0.8,0.3-1.5,0.9-2.1
			c0.6-0.6,1.3-0.9,2.1-0.9c0.8,0,1.5,0.3,2.1,0.9c0,0,0,0,0,0l0.1-0.2c0.3-1.3,1-2.4,1.9-3.4c-0.8-0.6-2.3-1.4-4.1-1.4
			c-1.9,0-3.5,0.7-4.9,2c-1.4,1.4-2,3-2,4.9c0,1.9,0.7,3.5,2,4.9c1.4,1.4,3,2,4.9,2c1.8,0,2.8-0.2,4.2-1.3
			C318.4,76.2,317.7,75,317.4,73.7"/>
		<path class="st4" d="M339.8,65L339.8,65l-2.8,3.6l-2.8-3.6h0v0h-4c0.3,0.2,0.6,0.5,0.8,0.7c1.6,1.6,2.4,3.5,2.4,5.8
			c0,2.2-0.8,4.2-2.4,5.8c-0.2,0.2-0.5,0.5-0.7,0.7h3.9v-6.3l2.8,3.7l2.7-3.6V78h4V65H339.8z"/>
		<path class="st2" d="M45.6,52.5h11h2.2l-1.2,1.8c-0.6,0.9-1.3,1.8-2.3,2.7c-3.2,3.2-7.3,4.9-12,4.9c-4.6,0-8.7-1.6-12-4.9
			c-3.3-3.4-4.9-7.4-4.9-12.1c0-4.7,1.6-8.7,4.9-12c3.3-3.3,7.4-5,12.1-5c4.6,0,7.6,1,10.4,3.5l14.4-13.2C61.2,11.7,53,8.5,43.4,8.5
			c-9.9,0-18.6,3.6-25.8,10.8C10.5,26.2,6.9,34.9,6.9,45c0,10,3.6,18.7,10.7,25.8c7.2,7.1,15.8,10.7,25.8,10.7
			c10,0,18.5-3.5,25.8-10.7C75.9,64,79.2,55.6,79.2,45v-0.9V41H45.6V52.5z"/>
		<polygon class="st0" points="154.6,30.2 153.7,31.4 152.7,30.1 138.1,11 137.4,11 137.4,10.9 118.1,10.9 118.1,78.7 137.4,78.7 
			137.4,45.6 137.4,42.1 139.6,44.9 153.8,63.7 167.7,45.2 169.8,42.4 169.8,45.9 169.8,78.7 189.2,78.7 189.2,10.9 169.4,10.9 		
			"/>
		<polygon class="st5" points="118.1,78.7 128.8,78.7 118.1,47.9 		"/>
		<rect x="198.1" y="11" class="st2" width="19.5" height="17.8"/>
		<g>
			<defs>
				<rect id="SVGID_13_" x="198.1" y="37.7" width="19.5" height="41"/>
			</defs>
			<clipPath id="SVGID_14_">
				<use xlink:href="#SVGID_13_"  style="overflow:visible;"/>
			</clipPath>
			
				<linearGradient id="SVGID_15_" gradientUnits="userSpaceOnUse" x1="-166.943" y1="695.1274" x2="-166.4477" y2="695.1274" gradientTransform="matrix(0 82.7555 82.7555 0 -57317.7461 13853.1641)">
				<stop  offset="0" style="stop-color:#F68C22"/>
				<stop  offset="0.6851" style="stop-color:#F37126"/>
				<stop  offset="1" style="stop-color:#F05123"/>
			</linearGradient>
			<rect x="198.1" y="37.7" class="st8" width="19.5" height="41"/>
		</g>
		<polygon class="st5" points="217.6,28.7 217.6,11 211,11 		"/>
		<path class="st2" d="M306.2,78c-0.9,0-1.7-0.7-1.7-1.7c0-0.9,0.7-1.7,1.7-1.7c0.9,0,1.7,0.8,1.7,1.7C307.9,77.3,307.2,78,306.2,78
			"/>
		<g>
			<defs>
				<path id="SVGID_16_" d="M323.3,73.6c-0.6-0.6-0.8-1.3-0.8-2.1c0-0.8,0.3-1.5,0.8-2.1c0.6-0.6,1.2-0.9,2.1-0.9
					c0.8,0,1.5,0.3,2,0.9c0.6,0.6,0.9,1.3,0.9,2.1c0,0.8-0.3,1.5-0.9,2.1c-0.6,0.6-1.2,0.8-2,0.8C324.6,74.4,323.9,74.2,323.3,73.6
					 M320.5,66.6c-1.3,1.3-2,3-2,4.9c0,1.9,0.7,3.5,2,4.9c1.4,1.3,3,2,4.9,2c1.9,0,3.5-0.7,4.9-2c1.4-1.4,2.1-3,2.1-4.9
					c0-1.9-0.7-3.6-2.1-4.9c-1.4-1.4-3-2.1-4.9-2.1C323.5,64.6,321.8,65.3,320.5,66.6"/>
			</defs>
			<clipPath id="SVGID_17_">
				<use xlink:href="#SVGID_16_"  style="overflow:visible;"/>
			</clipPath>
			
				<linearGradient id="SVGID_18_" gradientUnits="userSpaceOnUse" x1="-170.9073" y1="710.0991" x2="-170.4119" y2="710.0991" gradientTransform="matrix(28.0594 0 0 -28.0594 5113.9976 19996.4805)">
				<stop  offset="0" style="stop-color:#F68C22"/>
				<stop  offset="0.6851" style="stop-color:#F37126"/>
				<stop  offset="1" style="stop-color:#F05123"/>
			</linearGradient>
			<rect x="318.4" y="64.6" class="st9" width="13.9" height="13.9"/>
		</g>
		<path class="st2" d="M317.4,73.7c-0.6,0.5-1.4,0.6-2.2,0.6c-0.8,0-1.6-0.2-2.2-0.8c-0.6-0.6-0.7-1.2-0.7-2c0-0.8,0.3-1.5,0.9-2.1
			c0.6-0.6,1.3-0.9,2.1-0.9c0.8,0,1.5,0.3,2.1,0.9c0,0,0,0,0,0l0.1-0.2c0.3-1.3,1-2.4,1.9-3.4c-0.8-0.6-2.3-1.4-4.1-1.4
			c-1.9,0-3.5,0.7-4.9,2c-1.4,1.4-2,3-2,4.9c0,1.9,0.7,3.5,2,4.9c1.4,1.4,3,2,4.9,2c1.8,0,2.8-0.2,4.2-1.3
			C318.4,76.2,317.7,75,317.4,73.7"/>
		<path class="st0" d="M339.8,65L339.8,65l-2.8,3.6l-2.8-3.6h0v0h-4c0.3,0.2,0.6,0.5,0.8,0.7c1.6,1.6,2.4,3.5,2.4,5.8
			c0,2.2-0.8,4.2-2.4,5.8c-0.2,0.2-0.5,0.5-0.7,0.7h3.9v-6.3l2.8,3.7l2.7-3.6V78h4V65H339.8z"/>
		<path class="st4" d="M57.5,78.7c4.2-1.8,8.1-4.4,11.7-8C75.9,64,79.2,55.6,79.2,45v-0.9V41h-8.8L57.3,78.7L57.5,78.7z"/>
	</g>
</g>
<g id="Layer_2">
	<g>
		<path class="st2" d="M46.1,101.6v8.3h-2.9V88.6h8c2.4,0,4.2,0.6,5.6,1.8c1.3,1.2,2,2.8,2,4.7c0,2.1-0.7,3.6-2,4.8
			c-1.3,1.1-3.2,1.7-5.7,1.7H46.1z M46.1,99.3h5.2c1.5,0,2.7-0.4,3.5-1.1c0.8-0.7,1.2-1.7,1.2-3.1c0-1.3-0.4-2.3-1.2-3
			c-0.8-0.8-1.9-1.2-3.4-1.2h-5.3V99.3z"/>
		<path class="st2" d="M78.5,104.3h-9.1l-2,5.6h-3l8.3-21.2h2.5l8.3,21.2h-2.9L78.5,104.3z M70.3,102h7.4L74,92.1L70.3,102z"/>
		<path class="st2" d="M100.6,101.3h-5.1v8.6h-2.9V88.6h7.2c2.4,0,4.3,0.5,5.6,1.6c1.3,1.1,2,2.7,2,4.8c0,1.3-0.4,2.5-1.1,3.5
			c-0.7,1-1.7,1.7-3.1,2.2l5.1,9v0.2h-3.1L100.6,101.3z M95.5,99h4.4c1.4,0,2.6-0.4,3.4-1.1c0.8-0.7,1.3-1.7,1.3-2.9
			c0-1.3-0.4-2.3-1.2-3c-0.8-0.7-2-1.1-3.5-1.1h-4.4V99z"/>
		<path class="st2" d="M131.4,90.9h-7v19h-2.9v-19h-7v-2.3h16.8V90.9z"/>
		<path class="st2" d="M157.4,109.9h-2.9l-10.9-16.4v16.4h-2.9V88.6h2.9l11,16.4V88.6h2.9V109.9z"/>
		<path class="st2" d="M180.9,100.1h-9.4v7.5h10.9v2.3h-13.8V88.6h13.7v2.3h-10.8v6.8h9.4V100.1z"/>
		<path class="st2" d="M200.1,101.3H195v8.6h-2.9V88.6h7.2c2.4,0,4.3,0.5,5.6,1.6c1.3,1.1,2,2.7,2,4.8c0,1.3-0.4,2.5-1.1,3.5
			c-0.7,1-1.7,1.7-3.1,2.2l5.1,9v0.2h-3.1L200.1,101.3z M195,99h4.4c1.4,0,2.6-0.4,3.4-1.1c0.8-0.7,1.3-1.7,1.3-2.9
			c0-1.3-0.4-2.3-1.2-3c-0.8-0.7-2-1.1-3.5-1.1H195V99z"/>
		<path class="st2" d="M223.4,100.4c-2.5-0.7-4.2-1.5-5.4-2.5c-1.1-1-1.7-2.2-1.7-3.7c0-1.7,0.7-3.1,2.1-4.2
			c1.4-1.1,3.1-1.6,5.3-1.6c1.5,0,2.8,0.3,4,0.8c1.2,0.6,2.1,1.3,2.7,2.3c0.6,1,1,2.1,1,3.3h-2.9c0-1.3-0.4-2.3-1.3-3
			c-0.8-0.7-2-1.1-3.5-1.1c-1.4,0-2.5,0.3-3.3,0.9c-0.8,0.6-1.2,1.5-1.2,2.5c0,0.9,0.4,1.6,1.1,2.2c0.8,0.6,2,1.1,3.8,1.6
			c1.8,0.5,3.2,1,4.2,1.6c1,0.6,1.8,1.3,2.3,2.1c0.5,0.8,0.7,1.7,0.7,2.8c0,1.7-0.7,3.1-2.1,4.1c-1.4,1-3.2,1.6-5.5,1.6
			c-1.5,0-2.9-0.3-4.2-0.8c-1.3-0.6-2.3-1.3-3-2.3c-0.7-1-1.1-2.1-1.1-3.3h2.9c0,1.3,0.5,2.3,1.5,3c1,0.7,2.3,1.1,3.9,1.1
			c1.5,0,2.7-0.3,3.5-0.9c0.8-0.6,1.2-1.4,1.2-2.5c0-1-0.4-1.8-1.1-2.4C226.7,101.5,225.4,101,223.4,100.4z"/>
		<path class="st2" d="M258,109.9h-2.9v-9.8h-11v9.8h-2.9V88.6h2.9v9.1h11v-9.1h2.9V109.9z"/>
		<path class="st2" d="M272.3,109.9h-2.9V88.6h2.9V109.9z"/>
		<path class="st2" d="M286.5,101.6v8.3h-2.9V88.6h8c2.4,0,4.2,0.6,5.6,1.8c1.3,1.2,2,2.8,2,4.7c0,2.1-0.7,3.6-2,4.8
			c-1.3,1.1-3.2,1.7-5.7,1.7H286.5z M286.5,99.3h5.1c1.5,0,2.7-0.4,3.5-1.1c0.8-0.7,1.2-1.7,1.2-3.1c0-1.3-0.4-2.3-1.2-3
			c-0.8-0.8-1.9-1.2-3.4-1.2h-5.3V99.3z"/>
	</g>
</g>
</svg>
