<?xml version="1.0" encoding="utf-8"?>
<!-- Generator: Adobe Illustrator 23.0.6, SVG Export Plug-In . SVG Version: 6.00 Build 0)  -->
<svg version="1.1" xmlns="http://www.w3.org/2000/svg" xmlns:xlink="http://www.w3.org/1999/xlink" x="0px" y="0px"
	 viewBox="0 0 362 140" style="enable-background:new 0 0 362 140;" xml:space="preserve">
<style type="text/css">
	.st0{fill:#F05123;}
	.st1{clip-path:url(#SVGID_2_);fill:url(#SVGID_3_);}
	.st2{fill:#F68C22;}
	.st3{clip-path:url(#SVGID_5_);fill:url(#SVGID_6_);}
	.st4{fill:#E65025;}
	.st5{fill:#BE1E2D;}
	.st6{clip-path:url(#SVGID_8_);fill:url(#SVGID_9_);}
	.st7{clip-path:url(#SVGID_11_);fill:url(#SVGID_12_);}
	.st8{clip-path:url(#SVGID_14_);fill:url(#SVGID_15_);}
	.st9{clip-path:url(#SVGID_17_);fill:url(#SVGID_18_);}
	.st10{fill:#F05225;}
</style>
<g id="Layer_1">
	<g>
		<polygon class="st0" points="271.3,20.6 256.2,60.4 255.1,63.4 254,60.4 238.9,20.4 218.2,20.4 243.6,88.1 266.6,88.1 292,20.6 		
			"/>
		<g>
			<defs>
				<path id="SVGID_1_" d="M280.5,28.6c-7.1,7.1-10.7,15.7-10.7,25.8c0,9.9,3.6,18.6,10.7,25.8c7.1,7,15.3,10.5,25,10.7
					c-0.1-0.9-0.2-1.7-0.2-2.6c0-7.9,3.9-14.9,9.8-19.3c-2.6,1.6-5.6,2.5-8.9,2.5c-4.7,0-8.7-1.6-12-4.9c-3.3-3.4-4.9-7.4-4.9-12.1
					c0-4.7,1.7-8.7,4.9-12c3.4-3.4,7.3-5,12.1-5c4.7,0,8.6,1.6,12,5c3.4,3.2,5.1,7.2,5.1,12c0,4.7-1.7,8.8-5.1,12.1
					c-0.6,0.5-1.1,1-1.7,1.5c3.7-2.4,8.2-3.8,12.9-3.8c4,0,7.9,1,11.2,2.8c1.4-3.9,2.2-8.1,2.2-12.5c0-10-3.6-18.7-10.8-25.8
					c-7.3-7.3-15.7-10.8-25.8-10.8C296.2,17.8,287.7,21.4,280.5,28.6"/>
			</defs>
			<clipPath id="SVGID_2_">
				<use xlink:href="#SVGID_1_"  style="overflow:visible;"/>
			</clipPath>
			
				<linearGradient id="SVGID_3_" gradientUnits="userSpaceOnUse" x1="-152.9035" y1="684.617" x2="-152.4081" y2="684.617" gradientTransform="matrix(-126.8146 -73.2164 -73.2164 126.8146 31072.2422 -97942.1719)">
				<stop  offset="0" style="stop-color:#F68C22"/>
				<stop  offset="0.6851" style="stop-color:#F37126"/>
				<stop  offset="1" style="stop-color:#F05123"/>
			</linearGradient>
			<polygon class="st1" points="324.5,122.4 238.2,72.5 288,-13.8 374.4,36.1 			"/>
		</g>
		<path class="st2" d="M52.9,61.9h11H66l-1.2,1.8c-0.6,0.9-1.3,1.8-2.3,2.7c-3.2,3.2-7.3,4.9-12,4.9c-4.6,0-8.7-1.6-12-4.9
			c-3.3-3.4-4.9-7.4-4.9-12.1c0-4.7,1.6-8.7,4.9-12c3.3-3.3,7.4-5,12.1-5c4.6,0,7.6,1,10.4,3.5l14.4-13.2
			c-7.1-6.7-15.2-9.9-24.9-9.9c-9.9,0-18.6,3.6-25.8,10.8c-7.1,7-10.7,15.7-10.7,25.8c0,10,3.6,18.7,10.7,25.8
			c7.2,7.1,15.8,10.7,25.8,10.7c10,0,18.5-3.5,25.8-10.7c6.8-6.8,10.1-15.2,10.1-25.8v-0.9v-3.1H52.9V61.9z"/>
		<g>
			<defs>
				<path id="SVGID_4_" d="M94.2,61.8l5-14.3l1.1-3.2l1.1,3.2l5,14.3l0.5,1.6h-1.7h-9.9h-1.7L94.2,61.8z M88,20.3L64.5,88.1L85,88.2
					l3-8.5l0.3-0.8h0.8h22.3h0.8l0.3,0.8l3,8.4H136l-23.6-67.8H88z"/>
			</defs>
			<clipPath id="SVGID_5_">
				<use xlink:href="#SVGID_4_"  style="overflow:visible;"/>
			</clipPath>
			
				<linearGradient id="SVGID_6_" gradientUnits="userSpaceOnUse" x1="-155.2722" y1="688.1927" x2="-154.7768" y2="688.1927" gradientTransform="matrix(144.3504 0 0 -144.3504 22478.084 99395.1016)">
				<stop  offset="0" style="stop-color:#F68C22"/>
				<stop  offset="0.6851" style="stop-color:#F37126"/>
				<stop  offset="1" style="stop-color:#F05123"/>
			</linearGradient>
			<rect x="64.5" y="20.3" class="st3" width="71.5" height="67.9"/>
		</g>
		<path class="st4" d="M64.7,88.1c4.2-1.8,8.1-4.4,11.7-8c6.8-6.8,10.1-15.2,10.1-25.8v-0.9v-3.1h-8.8L64.5,88.1L64.7,88.1z"/>
		<polygon class="st4" points="161.8,39.5 160.9,40.7 160,39.5 145.4,20.4 144.7,20.4 144.7,20.3 125.3,20.3 125.3,88.1 144.7,88.1 
			144.7,55 144.7,51.4 146.8,54.3 161,73 174.9,54.6 177.1,51.7 177.1,55.3 177.1,88.1 196.4,88.1 196.4,20.3 176.6,20.3 		"/>
		<polygon class="st5" points="125.3,88.1 136,88.1 125.3,57.2 		"/>
		<rect x="205.4" y="20.4" class="st2" width="19.5" height="17.8"/>
		<g>
			<defs>
				<rect id="SVGID_7_" x="205.4" y="47.1" width="19.5" height="41"/>
			</defs>
			<clipPath id="SVGID_8_">
				<use xlink:href="#SVGID_7_"  style="overflow:visible;"/>
			</clipPath>
			
				<linearGradient id="SVGID_9_" gradientUnits="userSpaceOnUse" x1="-159.4738" y1="684.4854" x2="-158.9785" y2="684.4854" gradientTransform="matrix(0 82.7555 82.7555 0 -56429.8203 13244.4043)">
				<stop  offset="0" style="stop-color:#F68C22"/>
				<stop  offset="0.6851" style="stop-color:#F37126"/>
				<stop  offset="1" style="stop-color:#E55025"/>
			</linearGradient>
			<rect x="205.4" y="47.1" class="st6" width="19.5" height="41"/>
		</g>
		<path class="st5" d="M280.5,28.6c-7.1,7.1-10.7,15.7-10.7,25.8c0,5.7,1.2,11,3.6,15.8L292,20.6C287.9,22.4,284,25.1,280.5,28.6"/>
		<polygon class="st5" points="224.8,38.1 224.8,20.4 218.2,20.4 		"/>
		<path class="st2" d="M313.5,87.3c-0.9,0-1.7-0.7-1.7-1.7c0-0.9,0.7-1.7,1.7-1.7c0.9,0,1.7,0.8,1.7,1.7
			C315.1,86.6,314.4,87.3,313.5,87.3"/>
		<g>
			<defs>
				<path id="SVGID_10_" d="M330.5,83c-0.6-0.6-0.8-1.3-0.8-2.1c0-0.8,0.3-1.5,0.8-2.1c0.6-0.6,1.2-0.9,2.1-0.9c0.8,0,1.5,0.3,2,0.9
					c0.6,0.6,0.9,1.3,0.9,2.1c0,0.8-0.3,1.5-0.9,2.1c-0.6,0.6-1.2,0.8-2,0.8C331.8,83.8,331.1,83.5,330.5,83 M327.7,76
					c-1.3,1.3-2,3-2,4.9c0,1.9,0.7,3.5,2,4.9c1.4,1.3,3,2,4.9,2c1.9,0,3.5-0.7,4.9-2c1.4-1.4,2.1-3,2.1-4.9c0-1.9-0.7-3.6-2.1-4.9
					c-1.4-1.4-3-2.1-4.9-2.1C330.7,73.9,329.1,74.6,327.7,76"/>
			</defs>
			<clipPath id="SVGID_11_">
				<use xlink:href="#SVGID_10_"  style="overflow:visible;"/>
			</clipPath>
			
				<linearGradient id="SVGID_12_" gradientUnits="userSpaceOnUse" x1="-163.6797" y1="698.7442" x2="-163.1843" y2="698.7442" gradientTransform="matrix(28.0594 0 0 -28.0594 4918.4248 19687.2266)">
				<stop  offset="0" style="stop-color:#F68C22"/>
				<stop  offset="0.6851" style="stop-color:#F37126"/>
				<stop  offset="1" style="stop-color:#E55025"/>
			</linearGradient>
			<rect x="325.7" y="73.9" class="st7" width="13.9" height="13.9"/>
		</g>
		<path class="st2" d="M324.6,83.1c-0.6,0.5-1.4,0.6-2.2,0.6c-0.8,0-1.6-0.2-2.2-0.8c-0.6-0.6-0.7-1.2-0.7-2c0-0.8,0.3-1.5,0.9-2.1
			c0.6-0.6,1.3-0.9,2.1-0.9c0.8,0,1.5,0.3,2.1,0.9c0,0,0,0,0,0l0.1-0.2c0.3-1.3,1-2.4,1.9-3.4c-0.8-0.6-2.3-1.4-4.1-1.4
			c-1.9,0-3.5,0.7-4.9,2c-1.4,1.4-2,3-2,4.9c0,1.9,0.7,3.5,2,4.9c1.4,1.4,3,2,4.9,2c1.8,0,2.8-0.2,4.2-1.3
			C325.6,85.5,325,84.4,324.6,83.1"/>
		<path class="st4" d="M347.1,74.4L347.1,74.4l-2.8,3.6l-2.8-3.6h0v0h-4c0.3,0.2,0.6,0.5,0.8,0.7c1.6,1.6,2.4,3.5,2.4,5.8
			c0,2.2-0.8,4.2-2.4,5.8c-0.2,0.2-0.5,0.5-0.7,0.7h3.9V81l2.8,3.7l2.7-3.6v6.3h4V74.4H347.1z"/>
		<path class="st2" d="M52.9,61.9h11H66l-1.2,1.8c-0.6,0.9-1.3,1.8-2.3,2.7c-3.2,3.2-7.3,4.9-12,4.9c-4.6,0-8.7-1.6-12-4.9
			c-3.3-3.4-4.9-7.4-4.9-12.1c0-4.7,1.6-8.7,4.9-12c3.3-3.3,7.4-5,12.1-5c4.6,0,7.6,1,10.4,3.5l14.4-13.2
			c-7.1-6.7-15.2-9.9-24.9-9.9c-9.9,0-18.6,3.6-25.8,10.8c-7.1,7-10.7,15.7-10.7,25.8c0,10,3.6,18.7,10.7,25.8
			c7.2,7.1,15.8,10.7,25.8,10.7c10,0,18.5-3.5,25.8-10.7c6.8-6.8,10.1-15.2,10.1-25.8v-0.9v-3.1H52.9V61.9z"/>
		<polygon class="st0" points="161.8,39.5 160.9,40.7 160,39.5 145.4,20.4 144.7,20.4 144.7,20.3 125.3,20.3 125.3,88.1 144.7,88.1 
			144.7,55 144.7,51.4 146.8,54.3 161,73 174.9,54.6 177.1,51.7 177.1,55.3 177.1,88.1 196.4,88.1 196.4,20.3 176.6,20.3 		"/>
		<polygon class="st5" points="125.3,88.1 136,88.1 125.3,57.2 		"/>
		<rect x="205.4" y="20.4" class="st2" width="19.5" height="17.8"/>
		<g>
			<defs>
				<rect id="SVGID_13_" x="205.4" y="47.1" width="19.5" height="41"/>
			</defs>
			<clipPath id="SVGID_14_">
				<use xlink:href="#SVGID_13_"  style="overflow:visible;"/>
			</clipPath>
			
				<linearGradient id="SVGID_15_" gradientUnits="userSpaceOnUse" x1="-159.4738" y1="684.4854" x2="-158.9785" y2="684.4854" gradientTransform="matrix(0 82.7555 82.7555 0 -56429.8203 13244.4043)">
				<stop  offset="0" style="stop-color:#F68C22"/>
				<stop  offset="0.6851" style="stop-color:#F37126"/>
				<stop  offset="1" style="stop-color:#F05123"/>
			</linearGradient>
			<rect x="205.4" y="47.1" class="st8" width="19.5" height="41"/>
		</g>
		<polygon class="st5" points="224.8,38.1 224.8,20.4 218.2,20.4 		"/>
		<path class="st2" d="M313.5,87.3c-0.9,0-1.7-0.7-1.7-1.7c0-0.9,0.7-1.7,1.7-1.7c0.9,0,1.7,0.8,1.7,1.7
			C315.1,86.6,314.4,87.3,313.5,87.3"/>
		<g>
			<defs>
				<path id="SVGID_16_" d="M330.5,83c-0.6-0.6-0.8-1.3-0.8-2.1c0-0.8,0.3-1.5,0.8-2.1c0.6-0.6,1.2-0.9,2.1-0.9c0.8,0,1.5,0.3,2,0.9
					c0.6,0.6,0.9,1.3,0.9,2.1c0,0.8-0.3,1.5-0.9,2.1c-0.6,0.6-1.2,0.8-2,0.8C331.8,83.8,331.1,83.5,330.5,83 M327.7,76
					c-1.3,1.3-2,3-2,4.9c0,1.9,0.7,3.5,2,4.9c1.4,1.3,3,2,4.9,2c1.9,0,3.5-0.7,4.9-2c1.4-1.4,2.1-3,2.1-4.9c0-1.9-0.7-3.6-2.1-4.9
					c-1.4-1.4-3-2.1-4.9-2.1C330.7,73.9,329.1,74.6,327.7,76"/>
			</defs>
			<clipPath id="SVGID_17_">
				<use xlink:href="#SVGID_16_"  style="overflow:visible;"/>
			</clipPath>
			
				<linearGradient id="SVGID_18_" gradientUnits="userSpaceOnUse" x1="-163.6797" y1="698.7442" x2="-163.1843" y2="698.7442" gradientTransform="matrix(28.0594 0 0 -28.0594 4918.4248 19687.2266)">
				<stop  offset="0" style="stop-color:#F68C22"/>
				<stop  offset="0.6851" style="stop-color:#F37126"/>
				<stop  offset="1" style="stop-color:#F05123"/>
			</linearGradient>
			<rect x="325.7" y="73.9" class="st9" width="13.9" height="13.9"/>
		</g>
		<path class="st2" d="M324.6,83.1c-0.6,0.5-1.4,0.6-2.2,0.6c-0.8,0-1.6-0.2-2.2-0.8c-0.6-0.6-0.7-1.2-0.7-2c0-0.8,0.3-1.5,0.9-2.1
			c0.6-0.6,1.3-0.9,2.1-0.9c0.8,0,1.5,0.3,2.1,0.9c0,0,0,0,0,0l0.1-0.2c0.3-1.3,1-2.4,1.9-3.4c-0.8-0.6-2.3-1.4-4.1-1.4
			c-1.9,0-3.5,0.7-4.9,2c-1.4,1.4-2,3-2,4.9c0,1.9,0.7,3.5,2,4.9c1.4,1.4,3,2,4.9,2c1.8,0,2.8-0.2,4.2-1.3
			C325.6,85.5,325,84.4,324.6,83.1"/>
		<path class="st0" d="M347.1,74.4L347.1,74.4l-2.8,3.6l-2.8-3.6h0v0h-4c0.3,0.2,0.6,0.5,0.8,0.7c1.6,1.6,2.4,3.5,2.4,5.8
			c0,2.2-0.8,4.2-2.4,5.8c-0.2,0.2-0.5,0.5-0.7,0.7h3.9V81l2.8,3.7l2.7-3.6v6.3h4V74.4H347.1z"/>
		<path class="st4" d="M64.7,88.1c4.2-1.8,8.1-4.4,11.7-8c6.8-6.8,10.1-15.2,10.1-25.8v-0.9v-3.1h-8.8L64.5,88.1L64.7,88.1z"/>
	</g>
</g>
<g id="Layer_2">
	<g>
		<path class="st10" d="M221.7,106.7c5.6,1,8.1,5.4,7.6,9.5c-0.5,3.4-1.5,5.9-4.2,8.1c-2.8,2.1-6.9,1.9-10.3,1.9
			c-3.5-0.1-8.8-1.1-8.8-1.1l1.8-8.9c0,0,4.5,0.7,7.9,0.9c1.7,0.1,3.7,0.5,4-1.2c0.1-0.6,0.2-1.8-2.2-2.1c0,0-0.1,0-2.8-0.4
			c-2.7-0.4-3.9-0.7-3.9-0.7c-4.4-0.9-6.1-5.3-5.7-8.6c0.5-3.5,1.4-6,4.2-8.1c2.7-2.1,6.1-2.3,9.3-2.2c3.2,0.2,9.2,1.2,9.2,1.2
			l-1.9,8.6c0,0-5.2-0.6-7.4-0.8c-2.7-0.2-3.7-0.4-4.1,0.9c-0.3,0.9,0.3,1.6,0.9,1.8c0,0,0.5,0.2,3.4,0.6
			C220.4,106.5,221.7,106.7,221.7,106.7z"/>
		<path class="st10" d="M263.1,95.2v29.7h-9.2v-14.4l-6.3,8.3l-6.4-8.5v14.5H232V95.2h9.2v0h0l6.3,8.3l6.3-8.3v-0.1H263.1z"/>
		<path class="st10" d="M284.7,121h-9.5l-1.4,3.9l-9.8,0l10.3-29.7h11l10.3,29.7h-9.7L284.7,121z M282.1,113.4l-2.1-6l-2.1,6H282.1z
			"/>
		<path class="st10" d="M321.6,130.4l-7.4-9.9c-0.6,0-1.2,0.1-1.9,0.1h-5.4v4.2h-9.3V95.2h14.7c3.5,0,6.6,1.1,9.1,3.6
			c2.5,2.5,3.8,5.6,3.8,9.1c0,3.1-1,5.8-2.9,8l6.8,9L321.6,130.4z M312.3,111.3c2,0,3.5-1.6,3.5-3.6c0-1.9-1.5-3.5-3.5-3.5h-5.4v7.1
			H312.3z"/>
		<path class="st10" d="M351.1,104.3h-7.7v20.6h-9.2v-20.6h-7.7v-9.1h24.7V104.3z"/>
	</g>
</g>
</svg>
