<?xml version="1.0" encoding="utf-8"?>
<!-- Generator: Adobe Illustrator 25.0.0, SVG Export Plug-In . SVG Version: 6.00 Build 0)  -->
<svg version="1.1" id="Layer_2" xmlns="http://www.w3.org/2000/svg" xmlns:xlink="http://www.w3.org/1999/xlink" x="0px" y="0px"
	 viewBox="0 0 1355 378.3" style="enable-background:new 0 0 1355 378.3;" xml:space="preserve">
<style type="text/css">
	.st0{fill:#242424;}
</style>
<path class="st0" d="M1162.6,303.2c-3.4,0-6.2,2.9-6.2,6.4c0,3.5,2.7,6.3,6.2,6.3c3.4,0,6.2-2.8,6.2-6.3
	C1168.8,306.1,1166,303.2,1162.6,303.2"/>
<path class="st0" d="M1250.9,272.7c-5-5.2-11-7.8-18-7.8c-7.1,0-13,2.6-18,7.8c-4.9,5.1-7.5,11.3-7.5,18.6c0,7.2,2.5,13.5,7.5,18.6
	c5,5.1,11,7.7,18,7.7c7.1,0,13-2.6,18-7.7c5-5.2,7.5-11.4,7.5-18.6C1258.5,284,1255.9,277.8,1250.9,272.7 M1240.4,299.2
	c-2.1,2.1-4.6,3.2-7.5,3.2c-3,0-5.5-1.1-7.6-3.2c-2.1-2.2-3.1-4.8-3.1-7.9c0-3,1-5.7,3.1-7.8c2.1-2.2,4.6-3.3,7.6-3.3
	c2.9,0,5.4,1.1,7.5,3.3c2.2,2.1,3.2,4.8,3.2,7.8C1243.7,294.4,1242.6,297,1240.4,299.2"/>
<path class="st0" d="M1195.4,302c-2.9,0-6-0.9-8-3c-2.1-2.1-2.7-4.6-2.7-7.7c0-3,1-5.7,3.2-7.8c2.1-2.2,4.7-3.3,7.6-3.3
	c2.9,0,5.5,1.1,7.6,3.3c0.1,0.1,0.1,0.1,0.1,0.1l0.4-0.6c1.2-4.8,3.6-9.1,7-12.9c-3.1-2.2-8.6-5.2-15.1-5.2c-7,0-13,2.6-18,7.7
	c-5,5.2-7.5,11.4-7.5,18.7c0,7.2,2.5,13.5,7.5,18.6c5,5.2,11,7.7,18,7.7c6.7,0,10.3-0.7,15.4-4.8c-3.6-3.9-6-8.4-7.2-13.3
	C1201.4,301.6,1198.2,302,1195.4,302"/>
<path class="st0" d="M1285.9,266.6v0.1l-10.1,13.7l-10.1-13.8h-0.1v-0.1h-14.5c1.1,0.9,2.1,1.8,3.1,2.8c5.9,6,8.9,13.4,8.9,22
	c0,8.5-3,15.9-8.9,22c-0.9,0.9-1.8,1.7-2.7,2.5h14.2v-24l10.3,14l10.1-13.8v23.8h14.7v-49.2H1285.9z"/>
<polygon class="st0" points="807.8,63.2 807.1,61.3 765.7,61.3 765.7,128.8 831.6,128.8 "/>
<polygon class="st0" points="605.9,134.1 602.5,138.7 599,134 545.4,61.3 542.8,61.3 542.8,60.9 471.7,60.9 471.7,184.8 516,316.8 
	516.6,318.6 542.8,318.6 542.8,192.8 542.8,179.4 550.6,190.1 602.8,261.4 654,191.3 661.8,180.5 661.8,194 661.8,318.6 
	732.9,318.6 732.9,60.9 660.1,60.9 "/>
<path class="st0" d="M292,288.4c24.9-25.7,36.9-57.7,36.9-97.9V187v-11.7H205.8v43.7H246h8.1l-4.5,7c-2.2,3.4-4.8,6.7-8.3,10.3
	c-11.9,12.3-26.7,18.6-43.9,18.6c-17,0-31.9-6.2-44.2-18.6c-12-12.8-18-28.2-18-45.9c0-17.8,6-33.1,18-45.4
	c12.2-12.6,27.1-19,44.3-19c16.8,0,27.9,3.8,38.3,13.4l53-50.1c-25.9-25.3-55.8-37.7-91.3-37.7c-36.5,0-68.3,13.8-94.6,41
	c-26,26.6-39.2,59.5-39.2,97.9c0,38,13.2,71,39.2,97.9c26.4,26.9,58.2,40.6,94.6,40.6C234.3,328.9,265.2,315.7,292,288.4"/>
<path class="st0" d="M334.9,60.9l-36.6,109h30.6h5.3v5.5V187v3.5c0,41.6-12.6,74.9-38.5,101.8c-10.8,11-22.2,19.7-34.3,26.4
	l62.5,0.3l10.9-32.3l1-3h3.1h82h3.1l1,3l10.9,32H511L424.5,60.9H334.9z M397.9,224.6h-36.4h-6.1l2-6l18.2-54.2l4.1-12.2l4.1,12.2
	l18.2,54.2l2,6H397.9z"/>
<path class="st0" d="M1168.6,245.5c-9.7,6.3-20.4,9.4-32.6,9.4c-17.3,0-31.8-6.1-44.2-18.5c-12-12.8-18-28.2-18-45.9
	c0-17.8,6-33.1,18-45.4c12.3-12.8,26.8-19,44.3-19c17.2,0,31.6,6.2,43.9,19c12.4,12,18.7,27.3,18.7,45.4c0,18-6.3,33.4-18.8,45.9
	c-2,2-4.2,3.9-6.3,5.6c13.7-9.1,30-14.4,47.5-14.4c14.9,0,28.9,3.8,41.2,10.6c5.3-14.8,7.9-30.7,7.9-47.6
	c0-38.1-13.3-71.1-39.5-97.9c-26.6-27.6-57.6-41-94.6-41c-16.3,0-31.4,2.6-45.5,7.9l-1.7,4.7l-70.2,192.9
	c6,11.1,13.6,21.5,22.9,31.3c26,26.6,56.1,39.8,91.8,40.5c-0.3-3.3-0.5-6.6-0.5-9.9C1132.8,288.8,1146.9,262.2,1168.6,245.5"/>
<polygon class="st0" points="1007.8,62.3 952.4,213.6 948.3,224.7 944.3,213.6 888.9,61.3 812.8,61.3 906.1,318.6 990.6,318.6 
	1083.9,62.3 "/>
<rect x="765.7" y="162.8" class="st0" width="71.5" height="155.8"/>
</svg>
